<?xml version="1.0" standalone="yes"?>
<svg xmlns="http://www.w3.org/2000/svg" version="1.1" width="80" height="121">
	<g transform="translate(20 93)">
		

<rect x="0" y="0" width="10" height="10" style="fill:transparent;shape-rendering:crispEdges;"/>
<rect x="0" y="0" width="0.3448275862068966" height="0.3448275862068966" style="fill:#0000FF;shape-rendering:crispEdges;"/>
<rect x="0.3448275862068966" y="0" width="0.3448275862068966" height="0.3448275862068966" style="fill:#0000FF;shape-rendering:crispEdges;"/>
<rect x="0.6896551724137931" y="0" width="0.3448275862068966" height="0.3448275862068966" style="fill:#0000FF;shape-rendering:crispEdges;"/>
<rect x="1.0344827586206897" y="0" width="0.3448275862068966" height="0.3448275862068966" style="fill:#0000FF;shape-rendering:crispEdges;"/>
<rect x="1.3793103448275863" y="0" width="0.3448275862068966" height="0.3448275862068966" style="fill:#0000FF;shape-rendering:crispEdges;"/>
<rect x="1.7241379310344829" y="0" width="0.3448275862068966" height="0.3448275862068966" style="fill:#0000FF;shape-rendering:crispEdges;"/>
<rect x="2.0689655172413794" y="0" width="0.3448275862068966" height="0.3448275862068966" style="fill:#0000FF;shape-rendering:crispEdges;"/>
<rect x="2.7586206896551726" y="0" width="0.3448275862068966" height="0.3448275862068966" style="fill:#0000FF;shape-rendering:crispEdges;"/>
<rect x="3.1034482758620694" y="0" width="0.3448275862068966" height="0.3448275862068966" style="fill:#0000FF;shape-rendering:crispEdges;"/>
<rect x="4.482758620689656" y="0" width="0.3448275862068966" height="0.3448275862068966" style="fill:#0000FF;shape-rendering:crispEdges;"/>
<rect x="4.827586206896552" y="0" width="0.3448275862068966" height="0.3448275862068966" style="fill:#0000FF;shape-rendering:crispEdges;"/>
<rect x="5.172413793103448" y="0" width="0.3448275862068966" height="0.3448275862068966" style="fill:#0000FF;shape-rendering:crispEdges;"/>
<rect x="5.517241379310345" y="0" width="0.3448275862068966" height="0.3448275862068966" style="fill:#0000FF;shape-rendering:crispEdges;"/>
<rect x="6.206896551724139" y="0" width="0.3448275862068966" height="0.3448275862068966" style="fill:#0000FF;shape-rendering:crispEdges;"/>
<rect x="7.586206896551724" y="0" width="0.3448275862068966" height="0.3448275862068966" style="fill:#0000FF;shape-rendering:crispEdges;"/>
<rect x="7.931034482758621" y="0" width="0.3448275862068966" height="0.3448275862068966" style="fill:#0000FF;shape-rendering:crispEdges;"/>
<rect x="8.275862068965518" y="0" width="0.3448275862068966" height="0.3448275862068966" style="fill:#0000FF;shape-rendering:crispEdges;"/>
<rect x="8.620689655172415" y="0" width="0.3448275862068966" height="0.3448275862068966" style="fill:#0000FF;shape-rendering:crispEdges;"/>
<rect x="8.965517241379311" y="0" width="0.3448275862068966" height="0.3448275862068966" style="fill:#0000FF;shape-rendering:crispEdges;"/>
<rect x="9.310344827586208" y="0" width="0.3448275862068966" height="0.3448275862068966" style="fill:#0000FF;shape-rendering:crispEdges;"/>
<rect x="9.655172413793103" y="0" width="0.3448275862068966" height="0.3448275862068966" style="fill:#0000FF;shape-rendering:crispEdges;"/>
<rect x="0" y="0.3448275862068966" width="0.3448275862068966" height="0.3448275862068966" style="fill:#0000FF;shape-rendering:crispEdges;"/>
<rect x="2.0689655172413794" y="0.3448275862068966" width="0.3448275862068966" height="0.3448275862068966" style="fill:#0000FF;shape-rendering:crispEdges;"/>
<rect x="3.4482758620689657" y="0.3448275862068966" width="0.3448275862068966" height="0.3448275862068966" style="fill:#0000FF;shape-rendering:crispEdges;"/>
<rect x="5.172413793103448" y="0.3448275862068966" width="0.3448275862068966" height="0.3448275862068966" style="fill:#0000FF;shape-rendering:crispEdges;"/>
<rect x="5.517241379310345" y="0.3448275862068966" width="0.3448275862068966" height="0.3448275862068966" style="fill:#0000FF;shape-rendering:crispEdges;"/>
<rect x="6.8965517241379315" y="0.3448275862068966" width="0.3448275862068966" height="0.3448275862068966" style="fill:#0000FF;shape-rendering:crispEdges;"/>
<rect x="7.586206896551724" y="0.3448275862068966" width="0.3448275862068966" height="0.3448275862068966" style="fill:#0000FF;shape-rendering:crispEdges;"/>
<rect x="9.655172413793103" y="0.3448275862068966" width="0.3448275862068966" height="0.3448275862068966" style="fill:#0000FF;shape-rendering:crispEdges;"/>
<rect x="0" y="0.6896551724137931" width="0.3448275862068966" height="0.3448275862068966" style="fill:#0000FF;shape-rendering:crispEdges;"/>
<rect x="0.6896551724137931" y="0.6896551724137931" width="0.3448275862068966" height="0.3448275862068966" style="fill:#0000FF;shape-rendering:crispEdges;"/>
<rect x="1.0344827586206897" y="0.6896551724137931" width="0.3448275862068966" height="0.3448275862068966" style="fill:#0000FF;shape-rendering:crispEdges;"/>
<rect x="1.3793103448275863" y="0.6896551724137931" width="0.3448275862068966" height="0.3448275862068966" style="fill:#0000FF;shape-rendering:crispEdges;"/>
<rect x="2.0689655172413794" y="0.6896551724137931" width="0.3448275862068966" height="0.3448275862068966" style="fill:#0000FF;shape-rendering:crispEdges;"/>
<rect x="2.7586206896551726" y="0.6896551724137931" width="0.3448275862068966" height="0.3448275862068966" style="fill:#0000FF;shape-rendering:crispEdges;"/>
<rect x="3.4482758620689657" y="0.6896551724137931" width="0.3448275862068966" height="0.3448275862068966" style="fill:#0000FF;shape-rendering:crispEdges;"/>
<rect x="3.793103448275862" y="0.6896551724137931" width="0.3448275862068966" height="0.3448275862068966" style="fill:#0000FF;shape-rendering:crispEdges;"/>
<rect x="4.827586206896552" y="0.6896551724137931" width="0.3448275862068966" height="0.3448275862068966" style="fill:#0000FF;shape-rendering:crispEdges;"/>
<rect x="6.206896551724139" y="0.6896551724137931" width="0.3448275862068966" height="0.3448275862068966" style="fill:#0000FF;shape-rendering:crispEdges;"/>
<rect x="6.551724137931035" y="0.6896551724137931" width="0.3448275862068966" height="0.3448275862068966" style="fill:#0000FF;shape-rendering:crispEdges;"/>
<rect x="7.586206896551724" y="0.6896551724137931" width="0.3448275862068966" height="0.3448275862068966" style="fill:#0000FF;shape-rendering:crispEdges;"/>
<rect x="8.275862068965518" y="0.6896551724137931" width="0.3448275862068966" height="0.3448275862068966" style="fill:#0000FF;shape-rendering:crispEdges;"/>
<rect x="8.620689655172415" y="0.6896551724137931" width="0.3448275862068966" height="0.3448275862068966" style="fill:#0000FF;shape-rendering:crispEdges;"/>
<rect x="8.965517241379311" y="0.6896551724137931" width="0.3448275862068966" height="0.3448275862068966" style="fill:#0000FF;shape-rendering:crispEdges;"/>
<rect x="9.655172413793103" y="0.6896551724137931" width="0.3448275862068966" height="0.3448275862068966" style="fill:#0000FF;shape-rendering:crispEdges;"/>
<rect x="0" y="1.0344827586206897" width="0.3448275862068966" height="0.3448275862068966" style="fill:#0000FF;shape-rendering:crispEdges;"/>
<rect x="0.6896551724137931" y="1.0344827586206897" width="0.3448275862068966" height="0.3448275862068966" style="fill:#0000FF;shape-rendering:crispEdges;"/>
<rect x="1.0344827586206897" y="1.0344827586206897" width="0.3448275862068966" height="0.3448275862068966" style="fill:#0000FF;shape-rendering:crispEdges;"/>
<rect x="1.3793103448275863" y="1.0344827586206897" width="0.3448275862068966" height="0.3448275862068966" style="fill:#0000FF;shape-rendering:crispEdges;"/>
<rect x="2.0689655172413794" y="1.0344827586206897" width="0.3448275862068966" height="0.3448275862068966" style="fill:#0000FF;shape-rendering:crispEdges;"/>
<rect x="2.7586206896551726" y="1.0344827586206897" width="0.3448275862068966" height="0.3448275862068966" style="fill:#0000FF;shape-rendering:crispEdges;"/>
<rect x="3.1034482758620694" y="1.0344827586206897" width="0.3448275862068966" height="0.3448275862068966" style="fill:#0000FF;shape-rendering:crispEdges;"/>
<rect x="5.172413793103448" y="1.0344827586206897" width="0.3448275862068966" height="0.3448275862068966" style="fill:#0000FF;shape-rendering:crispEdges;"/>
<rect x="5.517241379310345" y="1.0344827586206897" width="0.3448275862068966" height="0.3448275862068966" style="fill:#0000FF;shape-rendering:crispEdges;"/>
<rect x="5.862068965517242" y="1.0344827586206897" width="0.3448275862068966" height="0.3448275862068966" style="fill:#0000FF;shape-rendering:crispEdges;"/>
<rect x="6.206896551724139" y="1.0344827586206897" width="0.3448275862068966" height="0.3448275862068966" style="fill:#0000FF;shape-rendering:crispEdges;"/>
<rect x="6.551724137931035" y="1.0344827586206897" width="0.3448275862068966" height="0.3448275862068966" style="fill:#0000FF;shape-rendering:crispEdges;"/>
<rect x="6.8965517241379315" y="1.0344827586206897" width="0.3448275862068966" height="0.3448275862068966" style="fill:#0000FF;shape-rendering:crispEdges;"/>
<rect x="7.586206896551724" y="1.0344827586206897" width="0.3448275862068966" height="0.3448275862068966" style="fill:#0000FF;shape-rendering:crispEdges;"/>
<rect x="8.275862068965518" y="1.0344827586206897" width="0.3448275862068966" height="0.3448275862068966" style="fill:#0000FF;shape-rendering:crispEdges;"/>
<rect x="8.620689655172415" y="1.0344827586206897" width="0.3448275862068966" height="0.3448275862068966" style="fill:#0000FF;shape-rendering:crispEdges;"/>
<rect x="8.965517241379311" y="1.0344827586206897" width="0.3448275862068966" height="0.3448275862068966" style="fill:#0000FF;shape-rendering:crispEdges;"/>
<rect x="9.655172413793103" y="1.0344827586206897" width="0.3448275862068966" height="0.3448275862068966" style="fill:#0000FF;shape-rendering:crispEdges;"/>
<rect x="0" y="1.3793103448275863" width="0.3448275862068966" height="0.3448275862068966" style="fill:#0000FF;shape-rendering:crispEdges;"/>
<rect x="0.6896551724137931" y="1.3793103448275863" width="0.3448275862068966" height="0.3448275862068966" style="fill:#0000FF;shape-rendering:crispEdges;"/>
<rect x="1.0344827586206897" y="1.3793103448275863" width="0.3448275862068966" height="0.3448275862068966" style="fill:#0000FF;shape-rendering:crispEdges;"/>
<rect x="1.3793103448275863" y="1.3793103448275863" width="0.3448275862068966" height="0.3448275862068966" style="fill:#0000FF;shape-rendering:crispEdges;"/>
<rect x="2.0689655172413794" y="1.3793103448275863" width="0.3448275862068966" height="0.3448275862068966" style="fill:#0000FF;shape-rendering:crispEdges;"/>
<rect x="3.4482758620689657" y="1.3793103448275863" width="0.3448275862068966" height="0.3448275862068966" style="fill:#0000FF;shape-rendering:crispEdges;"/>
<rect x="3.793103448275862" y="1.3793103448275863" width="0.3448275862068966" height="0.3448275862068966" style="fill:#0000FF;shape-rendering:crispEdges;"/>
<rect x="4.137931034482759" y="1.3793103448275863" width="0.3448275862068966" height="0.3448275862068966" style="fill:#0000FF;shape-rendering:crispEdges;"/>
<rect x="4.482758620689656" y="1.3793103448275863" width="0.3448275862068966" height="0.3448275862068966" style="fill:#0000FF;shape-rendering:crispEdges;"/>
<rect x="5.172413793103448" y="1.3793103448275863" width="0.3448275862068966" height="0.3448275862068966" style="fill:#0000FF;shape-rendering:crispEdges;"/>
<rect x="5.517241379310345" y="1.3793103448275863" width="0.3448275862068966" height="0.3448275862068966" style="fill:#0000FF;shape-rendering:crispEdges;"/>
<rect x="5.862068965517242" y="1.3793103448275863" width="0.3448275862068966" height="0.3448275862068966" style="fill:#0000FF;shape-rendering:crispEdges;"/>
<rect x="6.206896551724139" y="1.3793103448275863" width="0.3448275862068966" height="0.3448275862068966" style="fill:#0000FF;shape-rendering:crispEdges;"/>
<rect x="7.586206896551724" y="1.3793103448275863" width="0.3448275862068966" height="0.3448275862068966" style="fill:#0000FF;shape-rendering:crispEdges;"/>
<rect x="8.275862068965518" y="1.3793103448275863" width="0.3448275862068966" height="0.3448275862068966" style="fill:#0000FF;shape-rendering:crispEdges;"/>
<rect x="8.620689655172415" y="1.3793103448275863" width="0.3448275862068966" height="0.3448275862068966" style="fill:#0000FF;shape-rendering:crispEdges;"/>
<rect x="8.965517241379311" y="1.3793103448275863" width="0.3448275862068966" height="0.3448275862068966" style="fill:#0000FF;shape-rendering:crispEdges;"/>
<rect x="9.655172413793103" y="1.3793103448275863" width="0.3448275862068966" height="0.3448275862068966" style="fill:#0000FF;shape-rendering:crispEdges;"/>
<rect x="0" y="1.7241379310344829" width="0.3448275862068966" height="0.3448275862068966" style="fill:#0000FF;shape-rendering:crispEdges;"/>
<rect x="2.0689655172413794" y="1.7241379310344829" width="0.3448275862068966" height="0.3448275862068966" style="fill:#0000FF;shape-rendering:crispEdges;"/>
<rect x="2.7586206896551726" y="1.7241379310344829" width="0.3448275862068966" height="0.3448275862068966" style="fill:#0000FF;shape-rendering:crispEdges;"/>
<rect x="3.1034482758620694" y="1.7241379310344829" width="0.3448275862068966" height="0.3448275862068966" style="fill:#0000FF;shape-rendering:crispEdges;"/>
<rect x="3.4482758620689657" y="1.7241379310344829" width="0.3448275862068966" height="0.3448275862068966" style="fill:#0000FF;shape-rendering:crispEdges;"/>
<rect x="4.137931034482759" y="1.7241379310344829" width="0.3448275862068966" height="0.3448275862068966" style="fill:#0000FF;shape-rendering:crispEdges;"/>
<rect x="4.827586206896552" y="1.7241379310344829" width="0.3448275862068966" height="0.3448275862068966" style="fill:#0000FF;shape-rendering:crispEdges;"/>
<rect x="5.517241379310345" y="1.7241379310344829" width="0.3448275862068966" height="0.3448275862068966" style="fill:#0000FF;shape-rendering:crispEdges;"/>
<rect x="5.862068965517242" y="1.7241379310344829" width="0.3448275862068966" height="0.3448275862068966" style="fill:#0000FF;shape-rendering:crispEdges;"/>
<rect x="6.8965517241379315" y="1.7241379310344829" width="0.3448275862068966" height="0.3448275862068966" style="fill:#0000FF;shape-rendering:crispEdges;"/>
<rect x="7.586206896551724" y="1.7241379310344829" width="0.3448275862068966" height="0.3448275862068966" style="fill:#0000FF;shape-rendering:crispEdges;"/>
<rect x="9.655172413793103" y="1.7241379310344829" width="0.3448275862068966" height="0.3448275862068966" style="fill:#0000FF;shape-rendering:crispEdges;"/>
<rect x="0" y="2.0689655172413794" width="0.3448275862068966" height="0.3448275862068966" style="fill:#0000FF;shape-rendering:crispEdges;"/>
<rect x="0.3448275862068966" y="2.0689655172413794" width="0.3448275862068966" height="0.3448275862068966" style="fill:#0000FF;shape-rendering:crispEdges;"/>
<rect x="0.6896551724137931" y="2.0689655172413794" width="0.3448275862068966" height="0.3448275862068966" style="fill:#0000FF;shape-rendering:crispEdges;"/>
<rect x="1.0344827586206897" y="2.0689655172413794" width="0.3448275862068966" height="0.3448275862068966" style="fill:#0000FF;shape-rendering:crispEdges;"/>
<rect x="1.3793103448275863" y="2.0689655172413794" width="0.3448275862068966" height="0.3448275862068966" style="fill:#0000FF;shape-rendering:crispEdges;"/>
<rect x="1.7241379310344829" y="2.0689655172413794" width="0.3448275862068966" height="0.3448275862068966" style="fill:#0000FF;shape-rendering:crispEdges;"/>
<rect x="2.0689655172413794" y="2.0689655172413794" width="0.3448275862068966" height="0.3448275862068966" style="fill:#0000FF;shape-rendering:crispEdges;"/>
<rect x="2.7586206896551726" y="2.0689655172413794" width="0.3448275862068966" height="0.3448275862068966" style="fill:#0000FF;shape-rendering:crispEdges;"/>
<rect x="3.4482758620689657" y="2.0689655172413794" width="0.3448275862068966" height="0.3448275862068966" style="fill:#0000FF;shape-rendering:crispEdges;"/>
<rect x="4.137931034482759" y="2.0689655172413794" width="0.3448275862068966" height="0.3448275862068966" style="fill:#0000FF;shape-rendering:crispEdges;"/>
<rect x="4.827586206896552" y="2.0689655172413794" width="0.3448275862068966" height="0.3448275862068966" style="fill:#0000FF;shape-rendering:crispEdges;"/>
<rect x="5.517241379310345" y="2.0689655172413794" width="0.3448275862068966" height="0.3448275862068966" style="fill:#0000FF;shape-rendering:crispEdges;"/>
<rect x="6.206896551724139" y="2.0689655172413794" width="0.3448275862068966" height="0.3448275862068966" style="fill:#0000FF;shape-rendering:crispEdges;"/>
<rect x="6.8965517241379315" y="2.0689655172413794" width="0.3448275862068966" height="0.3448275862068966" style="fill:#0000FF;shape-rendering:crispEdges;"/>
<rect x="7.586206896551724" y="2.0689655172413794" width="0.3448275862068966" height="0.3448275862068966" style="fill:#0000FF;shape-rendering:crispEdges;"/>
<rect x="7.931034482758621" y="2.0689655172413794" width="0.3448275862068966" height="0.3448275862068966" style="fill:#0000FF;shape-rendering:crispEdges;"/>
<rect x="8.275862068965518" y="2.0689655172413794" width="0.3448275862068966" height="0.3448275862068966" style="fill:#0000FF;shape-rendering:crispEdges;"/>
<rect x="8.620689655172415" y="2.0689655172413794" width="0.3448275862068966" height="0.3448275862068966" style="fill:#0000FF;shape-rendering:crispEdges;"/>
<rect x="8.965517241379311" y="2.0689655172413794" width="0.3448275862068966" height="0.3448275862068966" style="fill:#0000FF;shape-rendering:crispEdges;"/>
<rect x="9.310344827586208" y="2.0689655172413794" width="0.3448275862068966" height="0.3448275862068966" style="fill:#0000FF;shape-rendering:crispEdges;"/>
<rect x="9.655172413793103" y="2.0689655172413794" width="0.3448275862068966" height="0.3448275862068966" style="fill:#0000FF;shape-rendering:crispEdges;"/>
<rect x="2.7586206896551726" y="2.413793103448276" width="0.3448275862068966" height="0.3448275862068966" style="fill:#0000FF;shape-rendering:crispEdges;"/>
<rect x="5.517241379310345" y="2.413793103448276" width="0.3448275862068966" height="0.3448275862068966" style="fill:#0000FF;shape-rendering:crispEdges;"/>
<rect x="5.862068965517242" y="2.413793103448276" width="0.3448275862068966" height="0.3448275862068966" style="fill:#0000FF;shape-rendering:crispEdges;"/>
<rect x="6.206896551724139" y="2.413793103448276" width="0.3448275862068966" height="0.3448275862068966" style="fill:#0000FF;shape-rendering:crispEdges;"/>
<rect x="6.551724137931035" y="2.413793103448276" width="0.3448275862068966" height="0.3448275862068966" style="fill:#0000FF;shape-rendering:crispEdges;"/>
<rect x="0" y="2.7586206896551726" width="0.3448275862068966" height="0.3448275862068966" style="fill:#0000FF;shape-rendering:crispEdges;"/>
<rect x="0.3448275862068966" y="2.7586206896551726" width="0.3448275862068966" height="0.3448275862068966" style="fill:#0000FF;shape-rendering:crispEdges;"/>
<rect x="1.0344827586206897" y="2.7586206896551726" width="0.3448275862068966" height="0.3448275862068966" style="fill:#0000FF;shape-rendering:crispEdges;"/>
<rect x="2.0689655172413794" y="2.7586206896551726" width="0.3448275862068966" height="0.3448275862068966" style="fill:#0000FF;shape-rendering:crispEdges;"/>
<rect x="2.413793103448276" y="2.7586206896551726" width="0.3448275862068966" height="0.3448275862068966" style="fill:#0000FF;shape-rendering:crispEdges;"/>
<rect x="4.137931034482759" y="2.7586206896551726" width="0.3448275862068966" height="0.3448275862068966" style="fill:#0000FF;shape-rendering:crispEdges;"/>
<rect x="4.482758620689656" y="2.7586206896551726" width="0.3448275862068966" height="0.3448275862068966" style="fill:#0000FF;shape-rendering:crispEdges;"/>
<rect x="5.172413793103448" y="2.7586206896551726" width="0.3448275862068966" height="0.3448275862068966" style="fill:#0000FF;shape-rendering:crispEdges;"/>
<rect x="5.517241379310345" y="2.7586206896551726" width="0.3448275862068966" height="0.3448275862068966" style="fill:#0000FF;shape-rendering:crispEdges;"/>
<rect x="6.551724137931035" y="2.7586206896551726" width="0.3448275862068966" height="0.3448275862068966" style="fill:#0000FF;shape-rendering:crispEdges;"/>
<rect x="7.241379310344828" y="2.7586206896551726" width="0.3448275862068966" height="0.3448275862068966" style="fill:#0000FF;shape-rendering:crispEdges;"/>
<rect x="7.586206896551724" y="2.7586206896551726" width="0.3448275862068966" height="0.3448275862068966" style="fill:#0000FF;shape-rendering:crispEdges;"/>
<rect x="7.931034482758621" y="2.7586206896551726" width="0.3448275862068966" height="0.3448275862068966" style="fill:#0000FF;shape-rendering:crispEdges;"/>
<rect x="8.620689655172415" y="2.7586206896551726" width="0.3448275862068966" height="0.3448275862068966" style="fill:#0000FF;shape-rendering:crispEdges;"/>
<rect x="8.965517241379311" y="2.7586206896551726" width="0.3448275862068966" height="0.3448275862068966" style="fill:#0000FF;shape-rendering:crispEdges;"/>
<rect x="9.655172413793103" y="2.7586206896551726" width="0.3448275862068966" height="0.3448275862068966" style="fill:#0000FF;shape-rendering:crispEdges;"/>
<rect x="0.3448275862068966" y="3.1034482758620694" width="0.3448275862068966" height="0.3448275862068966" style="fill:#0000FF;shape-rendering:crispEdges;"/>
<rect x="0.6896551724137931" y="3.1034482758620694" width="0.3448275862068966" height="0.3448275862068966" style="fill:#0000FF;shape-rendering:crispEdges;"/>
<rect x="1.3793103448275863" y="3.1034482758620694" width="0.3448275862068966" height="0.3448275862068966" style="fill:#0000FF;shape-rendering:crispEdges;"/>
<rect x="1.7241379310344829" y="3.1034482758620694" width="0.3448275862068966" height="0.3448275862068966" style="fill:#0000FF;shape-rendering:crispEdges;"/>
<rect x="3.1034482758620694" y="3.1034482758620694" width="0.3448275862068966" height="0.3448275862068966" style="fill:#0000FF;shape-rendering:crispEdges;"/>
<rect x="3.793103448275862" y="3.1034482758620694" width="0.3448275862068966" height="0.3448275862068966" style="fill:#0000FF;shape-rendering:crispEdges;"/>
<rect x="5.517241379310345" y="3.1034482758620694" width="0.3448275862068966" height="0.3448275862068966" style="fill:#0000FF;shape-rendering:crispEdges;"/>
<rect x="6.206896551724139" y="3.1034482758620694" width="0.3448275862068966" height="0.3448275862068966" style="fill:#0000FF;shape-rendering:crispEdges;"/>
<rect x="6.551724137931035" y="3.1034482758620694" width="0.3448275862068966" height="0.3448275862068966" style="fill:#0000FF;shape-rendering:crispEdges;"/>
<rect x="7.931034482758621" y="3.1034482758620694" width="0.3448275862068966" height="0.3448275862068966" style="fill:#0000FF;shape-rendering:crispEdges;"/>
<rect x="8.275862068965518" y="3.1034482758620694" width="0.3448275862068966" height="0.3448275862068966" style="fill:#0000FF;shape-rendering:crispEdges;"/>
<rect x="0.3448275862068966" y="3.4482758620689657" width="0.3448275862068966" height="0.3448275862068966" style="fill:#0000FF;shape-rendering:crispEdges;"/>
<rect x="1.0344827586206897" y="3.4482758620689657" width="0.3448275862068966" height="0.3448275862068966" style="fill:#0000FF;shape-rendering:crispEdges;"/>
<rect x="1.3793103448275863" y="3.4482758620689657" width="0.3448275862068966" height="0.3448275862068966" style="fill:#0000FF;shape-rendering:crispEdges;"/>
<rect x="1.7241379310344829" y="3.4482758620689657" width="0.3448275862068966" height="0.3448275862068966" style="fill:#0000FF;shape-rendering:crispEdges;"/>
<rect x="2.0689655172413794" y="3.4482758620689657" width="0.3448275862068966" height="0.3448275862068966" style="fill:#0000FF;shape-rendering:crispEdges;"/>
<rect x="2.413793103448276" y="3.4482758620689657" width="0.3448275862068966" height="0.3448275862068966" style="fill:#0000FF;shape-rendering:crispEdges;"/>
<rect x="2.7586206896551726" y="3.4482758620689657" width="0.3448275862068966" height="0.3448275862068966" style="fill:#0000FF;shape-rendering:crispEdges;"/>
<rect x="3.1034482758620694" y="3.4482758620689657" width="0.3448275862068966" height="0.3448275862068966" style="fill:#0000FF;shape-rendering:crispEdges;"/>
<rect x="3.4482758620689657" y="3.4482758620689657" width="0.3448275862068966" height="0.3448275862068966" style="fill:#0000FF;shape-rendering:crispEdges;"/>
<rect x="4.137931034482759" y="3.4482758620689657" width="0.3448275862068966" height="0.3448275862068966" style="fill:#0000FF;shape-rendering:crispEdges;"/>
<rect x="6.206896551724139" y="3.4482758620689657" width="0.3448275862068966" height="0.3448275862068966" style="fill:#0000FF;shape-rendering:crispEdges;"/>
<rect x="6.551724137931035" y="3.4482758620689657" width="0.3448275862068966" height="0.3448275862068966" style="fill:#0000FF;shape-rendering:crispEdges;"/>
<rect x="6.8965517241379315" y="3.4482758620689657" width="0.3448275862068966" height="0.3448275862068966" style="fill:#0000FF;shape-rendering:crispEdges;"/>
<rect x="7.586206896551724" y="3.4482758620689657" width="0.3448275862068966" height="0.3448275862068966" style="fill:#0000FF;shape-rendering:crispEdges;"/>
<rect x="7.931034482758621" y="3.4482758620689657" width="0.3448275862068966" height="0.3448275862068966" style="fill:#0000FF;shape-rendering:crispEdges;"/>
<rect x="8.275862068965518" y="3.4482758620689657" width="0.3448275862068966" height="0.3448275862068966" style="fill:#0000FF;shape-rendering:crispEdges;"/>
<rect x="8.620689655172415" y="3.4482758620689657" width="0.3448275862068966" height="0.3448275862068966" style="fill:#0000FF;shape-rendering:crispEdges;"/>
<rect x="8.965517241379311" y="3.4482758620689657" width="0.3448275862068966" height="0.3448275862068966" style="fill:#0000FF;shape-rendering:crispEdges;"/>
<rect x="9.655172413793103" y="3.4482758620689657" width="0.3448275862068966" height="0.3448275862068966" style="fill:#0000FF;shape-rendering:crispEdges;"/>
<rect x="0" y="3.793103448275862" width="0.3448275862068966" height="0.3448275862068966" style="fill:#0000FF;shape-rendering:crispEdges;"/>
<rect x="1.7241379310344829" y="3.793103448275862" width="0.3448275862068966" height="0.3448275862068966" style="fill:#0000FF;shape-rendering:crispEdges;"/>
<rect x="2.7586206896551726" y="3.793103448275862" width="0.3448275862068966" height="0.3448275862068966" style="fill:#0000FF;shape-rendering:crispEdges;"/>
<rect x="3.1034482758620694" y="3.793103448275862" width="0.3448275862068966" height="0.3448275862068966" style="fill:#0000FF;shape-rendering:crispEdges;"/>
<rect x="3.793103448275862" y="3.793103448275862" width="0.3448275862068966" height="0.3448275862068966" style="fill:#0000FF;shape-rendering:crispEdges;"/>
<rect x="4.827586206896552" y="3.793103448275862" width="0.3448275862068966" height="0.3448275862068966" style="fill:#0000FF;shape-rendering:crispEdges;"/>
<rect x="5.172413793103448" y="3.793103448275862" width="0.3448275862068966" height="0.3448275862068966" style="fill:#0000FF;shape-rendering:crispEdges;"/>
<rect x="5.517241379310345" y="3.793103448275862" width="0.3448275862068966" height="0.3448275862068966" style="fill:#0000FF;shape-rendering:crispEdges;"/>
<rect x="5.862068965517242" y="3.793103448275862" width="0.3448275862068966" height="0.3448275862068966" style="fill:#0000FF;shape-rendering:crispEdges;"/>
<rect x="7.931034482758621" y="3.793103448275862" width="0.3448275862068966" height="0.3448275862068966" style="fill:#0000FF;shape-rendering:crispEdges;"/>
<rect x="8.965517241379311" y="3.793103448275862" width="0.3448275862068966" height="0.3448275862068966" style="fill:#0000FF;shape-rendering:crispEdges;"/>
<rect x="9.655172413793103" y="3.793103448275862" width="0.3448275862068966" height="0.3448275862068966" style="fill:#0000FF;shape-rendering:crispEdges;"/>
<rect x="0" y="4.137931034482759" width="0.3448275862068966" height="0.3448275862068966" style="fill:#0000FF;shape-rendering:crispEdges;"/>
<rect x="1.3793103448275863" y="4.137931034482759" width="0.3448275862068966" height="0.3448275862068966" style="fill:#0000FF;shape-rendering:crispEdges;"/>
<rect x="2.0689655172413794" y="4.137931034482759" width="0.3448275862068966" height="0.3448275862068966" style="fill:#0000FF;shape-rendering:crispEdges;"/>
<rect x="2.413793103448276" y="4.137931034482759" width="0.3448275862068966" height="0.3448275862068966" style="fill:#0000FF;shape-rendering:crispEdges;"/>
<rect x="3.1034482758620694" y="4.137931034482759" width="0.3448275862068966" height="0.3448275862068966" style="fill:#0000FF;shape-rendering:crispEdges;"/>
<rect x="4.137931034482759" y="4.137931034482759" width="0.3448275862068966" height="0.3448275862068966" style="fill:#0000FF;shape-rendering:crispEdges;"/>
<rect x="4.482758620689656" y="4.137931034482759" width="0.3448275862068966" height="0.3448275862068966" style="fill:#0000FF;shape-rendering:crispEdges;"/>
<rect x="4.827586206896552" y="4.137931034482759" width="0.3448275862068966" height="0.3448275862068966" style="fill:#0000FF;shape-rendering:crispEdges;"/>
<rect x="5.862068965517242" y="4.137931034482759" width="0.3448275862068966" height="0.3448275862068966" style="fill:#0000FF;shape-rendering:crispEdges;"/>
<rect x="6.206896551724139" y="4.137931034482759" width="0.3448275862068966" height="0.3448275862068966" style="fill:#0000FF;shape-rendering:crispEdges;"/>
<rect x="6.551724137931035" y="4.137931034482759" width="0.3448275862068966" height="0.3448275862068966" style="fill:#0000FF;shape-rendering:crispEdges;"/>
<rect x="7.241379310344828" y="4.137931034482759" width="0.3448275862068966" height="0.3448275862068966" style="fill:#0000FF;shape-rendering:crispEdges;"/>
<rect x="7.931034482758621" y="4.137931034482759" width="0.3448275862068966" height="0.3448275862068966" style="fill:#0000FF;shape-rendering:crispEdges;"/>
<rect x="8.620689655172415" y="4.137931034482759" width="0.3448275862068966" height="0.3448275862068966" style="fill:#0000FF;shape-rendering:crispEdges;"/>
<rect x="9.310344827586208" y="4.137931034482759" width="0.3448275862068966" height="0.3448275862068966" style="fill:#0000FF;shape-rendering:crispEdges;"/>
<rect x="9.655172413793103" y="4.137931034482759" width="0.3448275862068966" height="0.3448275862068966" style="fill:#0000FF;shape-rendering:crispEdges;"/>
<rect x="0.6896551724137931" y="4.482758620689656" width="0.3448275862068966" height="0.3448275862068966" style="fill:#0000FF;shape-rendering:crispEdges;"/>
<rect x="1.3793103448275863" y="4.482758620689656" width="0.3448275862068966" height="0.3448275862068966" style="fill:#0000FF;shape-rendering:crispEdges;"/>
<rect x="2.413793103448276" y="4.482758620689656" width="0.3448275862068966" height="0.3448275862068966" style="fill:#0000FF;shape-rendering:crispEdges;"/>
<rect x="2.7586206896551726" y="4.482758620689656" width="0.3448275862068966" height="0.3448275862068966" style="fill:#0000FF;shape-rendering:crispEdges;"/>
<rect x="3.793103448275862" y="4.482758620689656" width="0.3448275862068966" height="0.3448275862068966" style="fill:#0000FF;shape-rendering:crispEdges;"/>
<rect x="4.482758620689656" y="4.482758620689656" width="0.3448275862068966" height="0.3448275862068966" style="fill:#0000FF;shape-rendering:crispEdges;"/>
<rect x="5.172413793103448" y="4.482758620689656" width="0.3448275862068966" height="0.3448275862068966" style="fill:#0000FF;shape-rendering:crispEdges;"/>
<rect x="5.862068965517242" y="4.482758620689656" width="0.3448275862068966" height="0.3448275862068966" style="fill:#0000FF;shape-rendering:crispEdges;"/>
<rect x="6.8965517241379315" y="4.482758620689656" width="0.3448275862068966" height="0.3448275862068966" style="fill:#0000FF;shape-rendering:crispEdges;"/>
<rect x="7.241379310344828" y="4.482758620689656" width="0.3448275862068966" height="0.3448275862068966" style="fill:#0000FF;shape-rendering:crispEdges;"/>
<rect x="7.586206896551724" y="4.482758620689656" width="0.3448275862068966" height="0.3448275862068966" style="fill:#0000FF;shape-rendering:crispEdges;"/>
<rect x="8.620689655172415" y="4.482758620689656" width="0.3448275862068966" height="0.3448275862068966" style="fill:#0000FF;shape-rendering:crispEdges;"/>
<rect x="9.310344827586208" y="4.482758620689656" width="0.3448275862068966" height="0.3448275862068966" style="fill:#0000FF;shape-rendering:crispEdges;"/>
<rect x="9.655172413793103" y="4.482758620689656" width="0.3448275862068966" height="0.3448275862068966" style="fill:#0000FF;shape-rendering:crispEdges;"/>
<rect x="0.3448275862068966" y="4.827586206896552" width="0.3448275862068966" height="0.3448275862068966" style="fill:#0000FF;shape-rendering:crispEdges;"/>
<rect x="0.6896551724137931" y="4.827586206896552" width="0.3448275862068966" height="0.3448275862068966" style="fill:#0000FF;shape-rendering:crispEdges;"/>
<rect x="1.7241379310344829" y="4.827586206896552" width="0.3448275862068966" height="0.3448275862068966" style="fill:#0000FF;shape-rendering:crispEdges;"/>
<rect x="2.0689655172413794" y="4.827586206896552" width="0.3448275862068966" height="0.3448275862068966" style="fill:#0000FF;shape-rendering:crispEdges;"/>
<rect x="2.413793103448276" y="4.827586206896552" width="0.3448275862068966" height="0.3448275862068966" style="fill:#0000FF;shape-rendering:crispEdges;"/>
<rect x="2.7586206896551726" y="4.827586206896552" width="0.3448275862068966" height="0.3448275862068966" style="fill:#0000FF;shape-rendering:crispEdges;"/>
<rect x="3.4482758620689657" y="4.827586206896552" width="0.3448275862068966" height="0.3448275862068966" style="fill:#0000FF;shape-rendering:crispEdges;"/>
<rect x="3.793103448275862" y="4.827586206896552" width="0.3448275862068966" height="0.3448275862068966" style="fill:#0000FF;shape-rendering:crispEdges;"/>
<rect x="4.827586206896552" y="4.827586206896552" width="0.3448275862068966" height="0.3448275862068966" style="fill:#0000FF;shape-rendering:crispEdges;"/>
<rect x="7.241379310344828" y="4.827586206896552" width="0.3448275862068966" height="0.3448275862068966" style="fill:#0000FF;shape-rendering:crispEdges;"/>
<rect x="8.275862068965518" y="4.827586206896552" width="0.3448275862068966" height="0.3448275862068966" style="fill:#0000FF;shape-rendering:crispEdges;"/>
<rect x="8.620689655172415" y="4.827586206896552" width="0.3448275862068966" height="0.3448275862068966" style="fill:#0000FF;shape-rendering:crispEdges;"/>
<rect x="9.655172413793103" y="4.827586206896552" width="0.3448275862068966" height="0.3448275862068966" style="fill:#0000FF;shape-rendering:crispEdges;"/>
<rect x="0" y="5.172413793103448" width="0.3448275862068966" height="0.3448275862068966" style="fill:#0000FF;shape-rendering:crispEdges;"/>
<rect x="0.3448275862068966" y="5.172413793103448" width="0.3448275862068966" height="0.3448275862068966" style="fill:#0000FF;shape-rendering:crispEdges;"/>
<rect x="0.6896551724137931" y="5.172413793103448" width="0.3448275862068966" height="0.3448275862068966" style="fill:#0000FF;shape-rendering:crispEdges;"/>
<rect x="2.413793103448276" y="5.172413793103448" width="0.3448275862068966" height="0.3448275862068966" style="fill:#0000FF;shape-rendering:crispEdges;"/>
<rect x="3.793103448275862" y="5.172413793103448" width="0.3448275862068966" height="0.3448275862068966" style="fill:#0000FF;shape-rendering:crispEdges;"/>
<rect x="4.482758620689656" y="5.172413793103448" width="0.3448275862068966" height="0.3448275862068966" style="fill:#0000FF;shape-rendering:crispEdges;"/>
<rect x="5.862068965517242" y="5.172413793103448" width="0.3448275862068966" height="0.3448275862068966" style="fill:#0000FF;shape-rendering:crispEdges;"/>
<rect x="6.206896551724139" y="5.172413793103448" width="0.3448275862068966" height="0.3448275862068966" style="fill:#0000FF;shape-rendering:crispEdges;"/>
<rect x="6.8965517241379315" y="5.172413793103448" width="0.3448275862068966" height="0.3448275862068966" style="fill:#0000FF;shape-rendering:crispEdges;"/>
<rect x="7.931034482758621" y="5.172413793103448" width="0.3448275862068966" height="0.3448275862068966" style="fill:#0000FF;shape-rendering:crispEdges;"/>
<rect x="8.275862068965518" y="5.172413793103448" width="0.3448275862068966" height="0.3448275862068966" style="fill:#0000FF;shape-rendering:crispEdges;"/>
<rect x="8.620689655172415" y="5.172413793103448" width="0.3448275862068966" height="0.3448275862068966" style="fill:#0000FF;shape-rendering:crispEdges;"/>
<rect x="9.310344827586208" y="5.172413793103448" width="0.3448275862068966" height="0.3448275862068966" style="fill:#0000FF;shape-rendering:crispEdges;"/>
<rect x="9.655172413793103" y="5.172413793103448" width="0.3448275862068966" height="0.3448275862068966" style="fill:#0000FF;shape-rendering:crispEdges;"/>
<rect x="0" y="5.517241379310345" width="0.3448275862068966" height="0.3448275862068966" style="fill:#0000FF;shape-rendering:crispEdges;"/>
<rect x="2.0689655172413794" y="5.517241379310345" width="0.3448275862068966" height="0.3448275862068966" style="fill:#0000FF;shape-rendering:crispEdges;"/>
<rect x="3.1034482758620694" y="5.517241379310345" width="0.3448275862068966" height="0.3448275862068966" style="fill:#0000FF;shape-rendering:crispEdges;"/>
<rect x="3.793103448275862" y="5.517241379310345" width="0.3448275862068966" height="0.3448275862068966" style="fill:#0000FF;shape-rendering:crispEdges;"/>
<rect x="4.137931034482759" y="5.517241379310345" width="0.3448275862068966" height="0.3448275862068966" style="fill:#0000FF;shape-rendering:crispEdges;"/>
<rect x="4.482758620689656" y="5.517241379310345" width="0.3448275862068966" height="0.3448275862068966" style="fill:#0000FF;shape-rendering:crispEdges;"/>
<rect x="4.827586206896552" y="5.517241379310345" width="0.3448275862068966" height="0.3448275862068966" style="fill:#0000FF;shape-rendering:crispEdges;"/>
<rect x="5.517241379310345" y="5.517241379310345" width="0.3448275862068966" height="0.3448275862068966" style="fill:#0000FF;shape-rendering:crispEdges;"/>
<rect x="5.862068965517242" y="5.517241379310345" width="0.3448275862068966" height="0.3448275862068966" style="fill:#0000FF;shape-rendering:crispEdges;"/>
<rect x="6.551724137931035" y="5.517241379310345" width="0.3448275862068966" height="0.3448275862068966" style="fill:#0000FF;shape-rendering:crispEdges;"/>
<rect x="6.8965517241379315" y="5.517241379310345" width="0.3448275862068966" height="0.3448275862068966" style="fill:#0000FF;shape-rendering:crispEdges;"/>
<rect x="7.241379310344828" y="5.517241379310345" width="0.3448275862068966" height="0.3448275862068966" style="fill:#0000FF;shape-rendering:crispEdges;"/>
<rect x="8.620689655172415" y="5.517241379310345" width="0.3448275862068966" height="0.3448275862068966" style="fill:#0000FF;shape-rendering:crispEdges;"/>
<rect x="9.310344827586208" y="5.517241379310345" width="0.3448275862068966" height="0.3448275862068966" style="fill:#0000FF;shape-rendering:crispEdges;"/>
<rect x="0" y="5.862068965517242" width="0.3448275862068966" height="0.3448275862068966" style="fill:#0000FF;shape-rendering:crispEdges;"/>
<rect x="1.0344827586206897" y="5.862068965517242" width="0.3448275862068966" height="0.3448275862068966" style="fill:#0000FF;shape-rendering:crispEdges;"/>
<rect x="1.7241379310344829" y="5.862068965517242" width="0.3448275862068966" height="0.3448275862068966" style="fill:#0000FF;shape-rendering:crispEdges;"/>
<rect x="2.413793103448276" y="5.862068965517242" width="0.3448275862068966" height="0.3448275862068966" style="fill:#0000FF;shape-rendering:crispEdges;"/>
<rect x="2.7586206896551726" y="5.862068965517242" width="0.3448275862068966" height="0.3448275862068966" style="fill:#0000FF;shape-rendering:crispEdges;"/>
<rect x="3.1034482758620694" y="5.862068965517242" width="0.3448275862068966" height="0.3448275862068966" style="fill:#0000FF;shape-rendering:crispEdges;"/>
<rect x="4.137931034482759" y="5.862068965517242" width="0.3448275862068966" height="0.3448275862068966" style="fill:#0000FF;shape-rendering:crispEdges;"/>
<rect x="4.482758620689656" y="5.862068965517242" width="0.3448275862068966" height="0.3448275862068966" style="fill:#0000FF;shape-rendering:crispEdges;"/>
<rect x="4.827586206896552" y="5.862068965517242" width="0.3448275862068966" height="0.3448275862068966" style="fill:#0000FF;shape-rendering:crispEdges;"/>
<rect x="6.551724137931035" y="5.862068965517242" width="0.3448275862068966" height="0.3448275862068966" style="fill:#0000FF;shape-rendering:crispEdges;"/>
<rect x="6.8965517241379315" y="5.862068965517242" width="0.3448275862068966" height="0.3448275862068966" style="fill:#0000FF;shape-rendering:crispEdges;"/>
<rect x="7.241379310344828" y="5.862068965517242" width="0.3448275862068966" height="0.3448275862068966" style="fill:#0000FF;shape-rendering:crispEdges;"/>
<rect x="8.275862068965518" y="5.862068965517242" width="0.3448275862068966" height="0.3448275862068966" style="fill:#0000FF;shape-rendering:crispEdges;"/>
<rect x="8.620689655172415" y="5.862068965517242" width="0.3448275862068966" height="0.3448275862068966" style="fill:#0000FF;shape-rendering:crispEdges;"/>
<rect x="8.965517241379311" y="5.862068965517242" width="0.3448275862068966" height="0.3448275862068966" style="fill:#0000FF;shape-rendering:crispEdges;"/>
<rect x="0" y="6.206896551724139" width="0.3448275862068966" height="0.3448275862068966" style="fill:#0000FF;shape-rendering:crispEdges;"/>
<rect x="0.3448275862068966" y="6.206896551724139" width="0.3448275862068966" height="0.3448275862068966" style="fill:#0000FF;shape-rendering:crispEdges;"/>
<rect x="1.7241379310344829" y="6.206896551724139" width="0.3448275862068966" height="0.3448275862068966" style="fill:#0000FF;shape-rendering:crispEdges;"/>
<rect x="2.0689655172413794" y="6.206896551724139" width="0.3448275862068966" height="0.3448275862068966" style="fill:#0000FF;shape-rendering:crispEdges;"/>
<rect x="2.413793103448276" y="6.206896551724139" width="0.3448275862068966" height="0.3448275862068966" style="fill:#0000FF;shape-rendering:crispEdges;"/>
<rect x="3.1034482758620694" y="6.206896551724139" width="0.3448275862068966" height="0.3448275862068966" style="fill:#0000FF;shape-rendering:crispEdges;"/>
<rect x="3.4482758620689657" y="6.206896551724139" width="0.3448275862068966" height="0.3448275862068966" style="fill:#0000FF;shape-rendering:crispEdges;"/>
<rect x="3.793103448275862" y="6.206896551724139" width="0.3448275862068966" height="0.3448275862068966" style="fill:#0000FF;shape-rendering:crispEdges;"/>
<rect x="4.137931034482759" y="6.206896551724139" width="0.3448275862068966" height="0.3448275862068966" style="fill:#0000FF;shape-rendering:crispEdges;"/>
<rect x="4.482758620689656" y="6.206896551724139" width="0.3448275862068966" height="0.3448275862068966" style="fill:#0000FF;shape-rendering:crispEdges;"/>
<rect x="5.172413793103448" y="6.206896551724139" width="0.3448275862068966" height="0.3448275862068966" style="fill:#0000FF;shape-rendering:crispEdges;"/>
<rect x="5.862068965517242" y="6.206896551724139" width="0.3448275862068966" height="0.3448275862068966" style="fill:#0000FF;shape-rendering:crispEdges;"/>
<rect x="6.206896551724139" y="6.206896551724139" width="0.3448275862068966" height="0.3448275862068966" style="fill:#0000FF;shape-rendering:crispEdges;"/>
<rect x="6.8965517241379315" y="6.206896551724139" width="0.3448275862068966" height="0.3448275862068966" style="fill:#0000FF;shape-rendering:crispEdges;"/>
<rect x="7.241379310344828" y="6.206896551724139" width="0.3448275862068966" height="0.3448275862068966" style="fill:#0000FF;shape-rendering:crispEdges;"/>
<rect x="7.586206896551724" y="6.206896551724139" width="0.3448275862068966" height="0.3448275862068966" style="fill:#0000FF;shape-rendering:crispEdges;"/>
<rect x="7.931034482758621" y="6.206896551724139" width="0.3448275862068966" height="0.3448275862068966" style="fill:#0000FF;shape-rendering:crispEdges;"/>
<rect x="8.965517241379311" y="6.206896551724139" width="0.3448275862068966" height="0.3448275862068966" style="fill:#0000FF;shape-rendering:crispEdges;"/>
<rect x="9.655172413793103" y="6.206896551724139" width="0.3448275862068966" height="0.3448275862068966" style="fill:#0000FF;shape-rendering:crispEdges;"/>
<rect x="0" y="6.551724137931035" width="0.3448275862068966" height="0.3448275862068966" style="fill:#0000FF;shape-rendering:crispEdges;"/>
<rect x="1.0344827586206897" y="6.551724137931035" width="0.3448275862068966" height="0.3448275862068966" style="fill:#0000FF;shape-rendering:crispEdges;"/>
<rect x="1.3793103448275863" y="6.551724137931035" width="0.3448275862068966" height="0.3448275862068966" style="fill:#0000FF;shape-rendering:crispEdges;"/>
<rect x="1.7241379310344829" y="6.551724137931035" width="0.3448275862068966" height="0.3448275862068966" style="fill:#0000FF;shape-rendering:crispEdges;"/>
<rect x="2.413793103448276" y="6.551724137931035" width="0.3448275862068966" height="0.3448275862068966" style="fill:#0000FF;shape-rendering:crispEdges;"/>
<rect x="3.1034482758620694" y="6.551724137931035" width="0.3448275862068966" height="0.3448275862068966" style="fill:#0000FF;shape-rendering:crispEdges;"/>
<rect x="4.137931034482759" y="6.551724137931035" width="0.3448275862068966" height="0.3448275862068966" style="fill:#0000FF;shape-rendering:crispEdges;"/>
<rect x="4.482758620689656" y="6.551724137931035" width="0.3448275862068966" height="0.3448275862068966" style="fill:#0000FF;shape-rendering:crispEdges;"/>
<rect x="4.827586206896552" y="6.551724137931035" width="0.3448275862068966" height="0.3448275862068966" style="fill:#0000FF;shape-rendering:crispEdges;"/>
<rect x="5.172413793103448" y="6.551724137931035" width="0.3448275862068966" height="0.3448275862068966" style="fill:#0000FF;shape-rendering:crispEdges;"/>
<rect x="6.551724137931035" y="6.551724137931035" width="0.3448275862068966" height="0.3448275862068966" style="fill:#0000FF;shape-rendering:crispEdges;"/>
<rect x="7.586206896551724" y="6.551724137931035" width="0.3448275862068966" height="0.3448275862068966" style="fill:#0000FF;shape-rendering:crispEdges;"/>
<rect x="8.965517241379311" y="6.551724137931035" width="0.3448275862068966" height="0.3448275862068966" style="fill:#0000FF;shape-rendering:crispEdges;"/>
<rect x="9.310344827586208" y="6.551724137931035" width="0.3448275862068966" height="0.3448275862068966" style="fill:#0000FF;shape-rendering:crispEdges;"/>
<rect x="9.655172413793103" y="6.551724137931035" width="0.3448275862068966" height="0.3448275862068966" style="fill:#0000FF;shape-rendering:crispEdges;"/>
<rect x="0" y="6.8965517241379315" width="0.3448275862068966" height="0.3448275862068966" style="fill:#0000FF;shape-rendering:crispEdges;"/>
<rect x="0.3448275862068966" y="6.8965517241379315" width="0.3448275862068966" height="0.3448275862068966" style="fill:#0000FF;shape-rendering:crispEdges;"/>
<rect x="0.6896551724137931" y="6.8965517241379315" width="0.3448275862068966" height="0.3448275862068966" style="fill:#0000FF;shape-rendering:crispEdges;"/>
<rect x="1.3793103448275863" y="6.8965517241379315" width="0.3448275862068966" height="0.3448275862068966" style="fill:#0000FF;shape-rendering:crispEdges;"/>
<rect x="2.0689655172413794" y="6.8965517241379315" width="0.3448275862068966" height="0.3448275862068966" style="fill:#0000FF;shape-rendering:crispEdges;"/>
<rect x="3.1034482758620694" y="6.8965517241379315" width="0.3448275862068966" height="0.3448275862068966" style="fill:#0000FF;shape-rendering:crispEdges;"/>
<rect x="3.793103448275862" y="6.8965517241379315" width="0.3448275862068966" height="0.3448275862068966" style="fill:#0000FF;shape-rendering:crispEdges;"/>
<rect x="5.172413793103448" y="6.8965517241379315" width="0.3448275862068966" height="0.3448275862068966" style="fill:#0000FF;shape-rendering:crispEdges;"/>
<rect x="5.517241379310345" y="6.8965517241379315" width="0.3448275862068966" height="0.3448275862068966" style="fill:#0000FF;shape-rendering:crispEdges;"/>
<rect x="5.862068965517242" y="6.8965517241379315" width="0.3448275862068966" height="0.3448275862068966" style="fill:#0000FF;shape-rendering:crispEdges;"/>
<rect x="6.206896551724139" y="6.8965517241379315" width="0.3448275862068966" height="0.3448275862068966" style="fill:#0000FF;shape-rendering:crispEdges;"/>
<rect x="6.8965517241379315" y="6.8965517241379315" width="0.3448275862068966" height="0.3448275862068966" style="fill:#0000FF;shape-rendering:crispEdges;"/>
<rect x="7.241379310344828" y="6.8965517241379315" width="0.3448275862068966" height="0.3448275862068966" style="fill:#0000FF;shape-rendering:crispEdges;"/>
<rect x="7.586206896551724" y="6.8965517241379315" width="0.3448275862068966" height="0.3448275862068966" style="fill:#0000FF;shape-rendering:crispEdges;"/>
<rect x="7.931034482758621" y="6.8965517241379315" width="0.3448275862068966" height="0.3448275862068966" style="fill:#0000FF;shape-rendering:crispEdges;"/>
<rect x="8.275862068965518" y="6.8965517241379315" width="0.3448275862068966" height="0.3448275862068966" style="fill:#0000FF;shape-rendering:crispEdges;"/>
<rect x="9.310344827586208" y="6.8965517241379315" width="0.3448275862068966" height="0.3448275862068966" style="fill:#0000FF;shape-rendering:crispEdges;"/>
<rect x="9.655172413793103" y="6.8965517241379315" width="0.3448275862068966" height="0.3448275862068966" style="fill:#0000FF;shape-rendering:crispEdges;"/>
<rect x="3.1034482758620694" y="7.241379310344828" width="0.3448275862068966" height="0.3448275862068966" style="fill:#0000FF;shape-rendering:crispEdges;"/>
<rect x="3.4482758620689657" y="7.241379310344828" width="0.3448275862068966" height="0.3448275862068966" style="fill:#0000FF;shape-rendering:crispEdges;"/>
<rect x="4.827586206896552" y="7.241379310344828" width="0.3448275862068966" height="0.3448275862068966" style="fill:#0000FF;shape-rendering:crispEdges;"/>
<rect x="5.517241379310345" y="7.241379310344828" width="0.3448275862068966" height="0.3448275862068966" style="fill:#0000FF;shape-rendering:crispEdges;"/>
<rect x="6.206896551724139" y="7.241379310344828" width="0.3448275862068966" height="0.3448275862068966" style="fill:#0000FF;shape-rendering:crispEdges;"/>
<rect x="6.551724137931035" y="7.241379310344828" width="0.3448275862068966" height="0.3448275862068966" style="fill:#0000FF;shape-rendering:crispEdges;"/>
<rect x="6.8965517241379315" y="7.241379310344828" width="0.3448275862068966" height="0.3448275862068966" style="fill:#0000FF;shape-rendering:crispEdges;"/>
<rect x="8.275862068965518" y="7.241379310344828" width="0.3448275862068966" height="0.3448275862068966" style="fill:#0000FF;shape-rendering:crispEdges;"/>
<rect x="8.620689655172415" y="7.241379310344828" width="0.3448275862068966" height="0.3448275862068966" style="fill:#0000FF;shape-rendering:crispEdges;"/>
<rect x="8.965517241379311" y="7.241379310344828" width="0.3448275862068966" height="0.3448275862068966" style="fill:#0000FF;shape-rendering:crispEdges;"/>
<rect x="0" y="7.586206896551724" width="0.3448275862068966" height="0.3448275862068966" style="fill:#0000FF;shape-rendering:crispEdges;"/>
<rect x="0.3448275862068966" y="7.586206896551724" width="0.3448275862068966" height="0.3448275862068966" style="fill:#0000FF;shape-rendering:crispEdges;"/>
<rect x="0.6896551724137931" y="7.586206896551724" width="0.3448275862068966" height="0.3448275862068966" style="fill:#0000FF;shape-rendering:crispEdges;"/>
<rect x="1.0344827586206897" y="7.586206896551724" width="0.3448275862068966" height="0.3448275862068966" style="fill:#0000FF;shape-rendering:crispEdges;"/>
<rect x="1.3793103448275863" y="7.586206896551724" width="0.3448275862068966" height="0.3448275862068966" style="fill:#0000FF;shape-rendering:crispEdges;"/>
<rect x="1.7241379310344829" y="7.586206896551724" width="0.3448275862068966" height="0.3448275862068966" style="fill:#0000FF;shape-rendering:crispEdges;"/>
<rect x="2.0689655172413794" y="7.586206896551724" width="0.3448275862068966" height="0.3448275862068966" style="fill:#0000FF;shape-rendering:crispEdges;"/>
<rect x="2.7586206896551726" y="7.586206896551724" width="0.3448275862068966" height="0.3448275862068966" style="fill:#0000FF;shape-rendering:crispEdges;"/>
<rect x="3.1034482758620694" y="7.586206896551724" width="0.3448275862068966" height="0.3448275862068966" style="fill:#0000FF;shape-rendering:crispEdges;"/>
<rect x="3.4482758620689657" y="7.586206896551724" width="0.3448275862068966" height="0.3448275862068966" style="fill:#0000FF;shape-rendering:crispEdges;"/>
<rect x="3.793103448275862" y="7.586206896551724" width="0.3448275862068966" height="0.3448275862068966" style="fill:#0000FF;shape-rendering:crispEdges;"/>
<rect x="4.482758620689656" y="7.586206896551724" width="0.3448275862068966" height="0.3448275862068966" style="fill:#0000FF;shape-rendering:crispEdges;"/>
<rect x="4.827586206896552" y="7.586206896551724" width="0.3448275862068966" height="0.3448275862068966" style="fill:#0000FF;shape-rendering:crispEdges;"/>
<rect x="6.206896551724139" y="7.586206896551724" width="0.3448275862068966" height="0.3448275862068966" style="fill:#0000FF;shape-rendering:crispEdges;"/>
<rect x="6.551724137931035" y="7.586206896551724" width="0.3448275862068966" height="0.3448275862068966" style="fill:#0000FF;shape-rendering:crispEdges;"/>
<rect x="6.8965517241379315" y="7.586206896551724" width="0.3448275862068966" height="0.3448275862068966" style="fill:#0000FF;shape-rendering:crispEdges;"/>
<rect x="7.586206896551724" y="7.586206896551724" width="0.3448275862068966" height="0.3448275862068966" style="fill:#0000FF;shape-rendering:crispEdges;"/>
<rect x="8.275862068965518" y="7.586206896551724" width="0.3448275862068966" height="0.3448275862068966" style="fill:#0000FF;shape-rendering:crispEdges;"/>
<rect x="0" y="7.931034482758621" width="0.3448275862068966" height="0.3448275862068966" style="fill:#0000FF;shape-rendering:crispEdges;"/>
<rect x="2.0689655172413794" y="7.931034482758621" width="0.3448275862068966" height="0.3448275862068966" style="fill:#0000FF;shape-rendering:crispEdges;"/>
<rect x="3.1034482758620694" y="7.931034482758621" width="0.3448275862068966" height="0.3448275862068966" style="fill:#0000FF;shape-rendering:crispEdges;"/>
<rect x="3.793103448275862" y="7.931034482758621" width="0.3448275862068966" height="0.3448275862068966" style="fill:#0000FF;shape-rendering:crispEdges;"/>
<rect x="5.172413793103448" y="7.931034482758621" width="0.3448275862068966" height="0.3448275862068966" style="fill:#0000FF;shape-rendering:crispEdges;"/>
<rect x="5.517241379310345" y="7.931034482758621" width="0.3448275862068966" height="0.3448275862068966" style="fill:#0000FF;shape-rendering:crispEdges;"/>
<rect x="6.551724137931035" y="7.931034482758621" width="0.3448275862068966" height="0.3448275862068966" style="fill:#0000FF;shape-rendering:crispEdges;"/>
<rect x="6.8965517241379315" y="7.931034482758621" width="0.3448275862068966" height="0.3448275862068966" style="fill:#0000FF;shape-rendering:crispEdges;"/>
<rect x="8.275862068965518" y="7.931034482758621" width="0.3448275862068966" height="0.3448275862068966" style="fill:#0000FF;shape-rendering:crispEdges;"/>
<rect x="8.620689655172415" y="7.931034482758621" width="0.3448275862068966" height="0.3448275862068966" style="fill:#0000FF;shape-rendering:crispEdges;"/>
<rect x="8.965517241379311" y="7.931034482758621" width="0.3448275862068966" height="0.3448275862068966" style="fill:#0000FF;shape-rendering:crispEdges;"/>
<rect x="0" y="8.275862068965518" width="0.3448275862068966" height="0.3448275862068966" style="fill:#0000FF;shape-rendering:crispEdges;"/>
<rect x="0.6896551724137931" y="8.275862068965518" width="0.3448275862068966" height="0.3448275862068966" style="fill:#0000FF;shape-rendering:crispEdges;"/>
<rect x="1.0344827586206897" y="8.275862068965518" width="0.3448275862068966" height="0.3448275862068966" style="fill:#0000FF;shape-rendering:crispEdges;"/>
<rect x="1.3793103448275863" y="8.275862068965518" width="0.3448275862068966" height="0.3448275862068966" style="fill:#0000FF;shape-rendering:crispEdges;"/>
<rect x="2.0689655172413794" y="8.275862068965518" width="0.3448275862068966" height="0.3448275862068966" style="fill:#0000FF;shape-rendering:crispEdges;"/>
<rect x="3.1034482758620694" y="8.275862068965518" width="0.3448275862068966" height="0.3448275862068966" style="fill:#0000FF;shape-rendering:crispEdges;"/>
<rect x="4.827586206896552" y="8.275862068965518" width="0.3448275862068966" height="0.3448275862068966" style="fill:#0000FF;shape-rendering:crispEdges;"/>
<rect x="5.517241379310345" y="8.275862068965518" width="0.3448275862068966" height="0.3448275862068966" style="fill:#0000FF;shape-rendering:crispEdges;"/>
<rect x="6.8965517241379315" y="8.275862068965518" width="0.3448275862068966" height="0.3448275862068966" style="fill:#0000FF;shape-rendering:crispEdges;"/>
<rect x="7.241379310344828" y="8.275862068965518" width="0.3448275862068966" height="0.3448275862068966" style="fill:#0000FF;shape-rendering:crispEdges;"/>
<rect x="7.586206896551724" y="8.275862068965518" width="0.3448275862068966" height="0.3448275862068966" style="fill:#0000FF;shape-rendering:crispEdges;"/>
<rect x="7.931034482758621" y="8.275862068965518" width="0.3448275862068966" height="0.3448275862068966" style="fill:#0000FF;shape-rendering:crispEdges;"/>
<rect x="8.275862068965518" y="8.275862068965518" width="0.3448275862068966" height="0.3448275862068966" style="fill:#0000FF;shape-rendering:crispEdges;"/>
<rect x="8.620689655172415" y="8.275862068965518" width="0.3448275862068966" height="0.3448275862068966" style="fill:#0000FF;shape-rendering:crispEdges;"/>
<rect x="9.310344827586208" y="8.275862068965518" width="0.3448275862068966" height="0.3448275862068966" style="fill:#0000FF;shape-rendering:crispEdges;"/>
<rect x="0" y="8.620689655172415" width="0.3448275862068966" height="0.3448275862068966" style="fill:#0000FF;shape-rendering:crispEdges;"/>
<rect x="0.6896551724137931" y="8.620689655172415" width="0.3448275862068966" height="0.3448275862068966" style="fill:#0000FF;shape-rendering:crispEdges;"/>
<rect x="1.0344827586206897" y="8.620689655172415" width="0.3448275862068966" height="0.3448275862068966" style="fill:#0000FF;shape-rendering:crispEdges;"/>
<rect x="1.3793103448275863" y="8.620689655172415" width="0.3448275862068966" height="0.3448275862068966" style="fill:#0000FF;shape-rendering:crispEdges;"/>
<rect x="2.0689655172413794" y="8.620689655172415" width="0.3448275862068966" height="0.3448275862068966" style="fill:#0000FF;shape-rendering:crispEdges;"/>
<rect x="2.7586206896551726" y="8.620689655172415" width="0.3448275862068966" height="0.3448275862068966" style="fill:#0000FF;shape-rendering:crispEdges;"/>
<rect x="3.793103448275862" y="8.620689655172415" width="0.3448275862068966" height="0.3448275862068966" style="fill:#0000FF;shape-rendering:crispEdges;"/>
<rect x="4.137931034482759" y="8.620689655172415" width="0.3448275862068966" height="0.3448275862068966" style="fill:#0000FF;shape-rendering:crispEdges;"/>
<rect x="4.827586206896552" y="8.620689655172415" width="0.3448275862068966" height="0.3448275862068966" style="fill:#0000FF;shape-rendering:crispEdges;"/>
<rect x="6.206896551724139" y="8.620689655172415" width="0.3448275862068966" height="0.3448275862068966" style="fill:#0000FF;shape-rendering:crispEdges;"/>
<rect x="6.8965517241379315" y="8.620689655172415" width="0.3448275862068966" height="0.3448275862068966" style="fill:#0000FF;shape-rendering:crispEdges;"/>
<rect x="7.241379310344828" y="8.620689655172415" width="0.3448275862068966" height="0.3448275862068966" style="fill:#0000FF;shape-rendering:crispEdges;"/>
<rect x="7.586206896551724" y="8.620689655172415" width="0.3448275862068966" height="0.3448275862068966" style="fill:#0000FF;shape-rendering:crispEdges;"/>
<rect x="8.275862068965518" y="8.620689655172415" width="0.3448275862068966" height="0.3448275862068966" style="fill:#0000FF;shape-rendering:crispEdges;"/>
<rect x="8.965517241379311" y="8.620689655172415" width="0.3448275862068966" height="0.3448275862068966" style="fill:#0000FF;shape-rendering:crispEdges;"/>
<rect x="9.310344827586208" y="8.620689655172415" width="0.3448275862068966" height="0.3448275862068966" style="fill:#0000FF;shape-rendering:crispEdges;"/>
<rect x="0" y="8.965517241379311" width="0.3448275862068966" height="0.3448275862068966" style="fill:#0000FF;shape-rendering:crispEdges;"/>
<rect x="0.6896551724137931" y="8.965517241379311" width="0.3448275862068966" height="0.3448275862068966" style="fill:#0000FF;shape-rendering:crispEdges;"/>
<rect x="1.0344827586206897" y="8.965517241379311" width="0.3448275862068966" height="0.3448275862068966" style="fill:#0000FF;shape-rendering:crispEdges;"/>
<rect x="1.3793103448275863" y="8.965517241379311" width="0.3448275862068966" height="0.3448275862068966" style="fill:#0000FF;shape-rendering:crispEdges;"/>
<rect x="2.0689655172413794" y="8.965517241379311" width="0.3448275862068966" height="0.3448275862068966" style="fill:#0000FF;shape-rendering:crispEdges;"/>
<rect x="3.4482758620689657" y="8.965517241379311" width="0.3448275862068966" height="0.3448275862068966" style="fill:#0000FF;shape-rendering:crispEdges;"/>
<rect x="4.137931034482759" y="8.965517241379311" width="0.3448275862068966" height="0.3448275862068966" style="fill:#0000FF;shape-rendering:crispEdges;"/>
<rect x="4.827586206896552" y="8.965517241379311" width="0.3448275862068966" height="0.3448275862068966" style="fill:#0000FF;shape-rendering:crispEdges;"/>
<rect x="5.862068965517242" y="8.965517241379311" width="0.3448275862068966" height="0.3448275862068966" style="fill:#0000FF;shape-rendering:crispEdges;"/>
<rect x="6.206896551724139" y="8.965517241379311" width="0.3448275862068966" height="0.3448275862068966" style="fill:#0000FF;shape-rendering:crispEdges;"/>
<rect x="6.551724137931035" y="8.965517241379311" width="0.3448275862068966" height="0.3448275862068966" style="fill:#0000FF;shape-rendering:crispEdges;"/>
<rect x="6.8965517241379315" y="8.965517241379311" width="0.3448275862068966" height="0.3448275862068966" style="fill:#0000FF;shape-rendering:crispEdges;"/>
<rect x="7.241379310344828" y="8.965517241379311" width="0.3448275862068966" height="0.3448275862068966" style="fill:#0000FF;shape-rendering:crispEdges;"/>
<rect x="8.275862068965518" y="8.965517241379311" width="0.3448275862068966" height="0.3448275862068966" style="fill:#0000FF;shape-rendering:crispEdges;"/>
<rect x="8.620689655172415" y="8.965517241379311" width="0.3448275862068966" height="0.3448275862068966" style="fill:#0000FF;shape-rendering:crispEdges;"/>
<rect x="0" y="9.310344827586208" width="0.3448275862068966" height="0.3448275862068966" style="fill:#0000FF;shape-rendering:crispEdges;"/>
<rect x="2.0689655172413794" y="9.310344827586208" width="0.3448275862068966" height="0.3448275862068966" style="fill:#0000FF;shape-rendering:crispEdges;"/>
<rect x="2.7586206896551726" y="9.310344827586208" width="0.3448275862068966" height="0.3448275862068966" style="fill:#0000FF;shape-rendering:crispEdges;"/>
<rect x="3.4482758620689657" y="9.310344827586208" width="0.3448275862068966" height="0.3448275862068966" style="fill:#0000FF;shape-rendering:crispEdges;"/>
<rect x="4.482758620689656" y="9.310344827586208" width="0.3448275862068966" height="0.3448275862068966" style="fill:#0000FF;shape-rendering:crispEdges;"/>
<rect x="4.827586206896552" y="9.310344827586208" width="0.3448275862068966" height="0.3448275862068966" style="fill:#0000FF;shape-rendering:crispEdges;"/>
<rect x="5.172413793103448" y="9.310344827586208" width="0.3448275862068966" height="0.3448275862068966" style="fill:#0000FF;shape-rendering:crispEdges;"/>
<rect x="5.517241379310345" y="9.310344827586208" width="0.3448275862068966" height="0.3448275862068966" style="fill:#0000FF;shape-rendering:crispEdges;"/>
<rect x="5.862068965517242" y="9.310344827586208" width="0.3448275862068966" height="0.3448275862068966" style="fill:#0000FF;shape-rendering:crispEdges;"/>
<rect x="7.241379310344828" y="9.310344827586208" width="0.3448275862068966" height="0.3448275862068966" style="fill:#0000FF;shape-rendering:crispEdges;"/>
<rect x="7.586206896551724" y="9.310344827586208" width="0.3448275862068966" height="0.3448275862068966" style="fill:#0000FF;shape-rendering:crispEdges;"/>
<rect x="7.931034482758621" y="9.310344827586208" width="0.3448275862068966" height="0.3448275862068966" style="fill:#0000FF;shape-rendering:crispEdges;"/>
<rect x="8.275862068965518" y="9.310344827586208" width="0.3448275862068966" height="0.3448275862068966" style="fill:#0000FF;shape-rendering:crispEdges;"/>
<rect x="9.310344827586208" y="9.310344827586208" width="0.3448275862068966" height="0.3448275862068966" style="fill:#0000FF;shape-rendering:crispEdges;"/>
<rect x="9.655172413793103" y="9.310344827586208" width="0.3448275862068966" height="0.3448275862068966" style="fill:#0000FF;shape-rendering:crispEdges;"/>
<rect x="0" y="9.655172413793103" width="0.3448275862068966" height="0.3448275862068966" style="fill:#0000FF;shape-rendering:crispEdges;"/>
<rect x="0.3448275862068966" y="9.655172413793103" width="0.3448275862068966" height="0.3448275862068966" style="fill:#0000FF;shape-rendering:crispEdges;"/>
<rect x="0.6896551724137931" y="9.655172413793103" width="0.3448275862068966" height="0.3448275862068966" style="fill:#0000FF;shape-rendering:crispEdges;"/>
<rect x="1.0344827586206897" y="9.655172413793103" width="0.3448275862068966" height="0.3448275862068966" style="fill:#0000FF;shape-rendering:crispEdges;"/>
<rect x="1.3793103448275863" y="9.655172413793103" width="0.3448275862068966" height="0.3448275862068966" style="fill:#0000FF;shape-rendering:crispEdges;"/>
<rect x="1.7241379310344829" y="9.655172413793103" width="0.3448275862068966" height="0.3448275862068966" style="fill:#0000FF;shape-rendering:crispEdges;"/>
<rect x="2.0689655172413794" y="9.655172413793103" width="0.3448275862068966" height="0.3448275862068966" style="fill:#0000FF;shape-rendering:crispEdges;"/>
<rect x="2.7586206896551726" y="9.655172413793103" width="0.3448275862068966" height="0.3448275862068966" style="fill:#0000FF;shape-rendering:crispEdges;"/>
<rect x="3.1034482758620694" y="9.655172413793103" width="0.3448275862068966" height="0.3448275862068966" style="fill:#0000FF;shape-rendering:crispEdges;"/>
<rect x="3.793103448275862" y="9.655172413793103" width="0.3448275862068966" height="0.3448275862068966" style="fill:#0000FF;shape-rendering:crispEdges;"/>
<rect x="4.482758620689656" y="9.655172413793103" width="0.3448275862068966" height="0.3448275862068966" style="fill:#0000FF;shape-rendering:crispEdges;"/>
<rect x="4.827586206896552" y="9.655172413793103" width="0.3448275862068966" height="0.3448275862068966" style="fill:#0000FF;shape-rendering:crispEdges;"/>
<rect x="7.241379310344828" y="9.655172413793103" width="0.3448275862068966" height="0.3448275862068966" style="fill:#0000FF;shape-rendering:crispEdges;"/>
<rect x="8.620689655172415" y="9.655172413793103" width="0.3448275862068966" height="0.3448275862068966" style="fill:#0000FF;shape-rendering:crispEdges;"/>
<rect x="8.965517241379311" y="9.655172413793103" width="0.3448275862068966" height="0.3448275862068966" style="fill:#0000FF;shape-rendering:crispEdges;"/>

	</g>
</svg>